<svg width="57px" height="26px" viewBox="0 0 57 26" version="1.1" xmlns="http://www.w3.org/2000/svg" xmlns:xlink="http://www.w3.org/1999/xlink">
  <!-- Generator: Sketch 49.1 (51147) - http://www.bohemiancoding.com/sketch -->
  <desc>Created with Sketch.</desc>
  <defs></defs>
  <g id="Page-1" stroke="none" stroke-width="1" fill="none" fill-rule="evenodd">
    <g id="Wallet" transform="translate(-116.000000, -536.000000)" fill="#FF7E76">
      <g id="Group-3" transform="translate(104.000000, 520.000000)">
        <text id="+" font-family="LucidaGrande-Bold, Lucida Grande" font-size="24" font-weight="bold">
          <tspan x="10" y="36">+</tspan>
        </text>
        <g id="Group" transform="translate(38.000000, 16.000000)" fill-rule="nonzero">
          <path d="M2.95238095,0 C1.32953095,0 0,1.30093853 0,2.88888809 L0,23.4722229 C0,24.860117 1.16493571,26 2.58333333,26 L28.4166667,26 C29.8350643,26 31,24.860117 31,23.4722229 L31,6.86110921 C31,5.47321515 29.8350643,4.33333213 28.4166667,4.33333213 L26.5714286,4.33333213 L26.5714286,0.722222022 C26.5713917,0.344066571 26.2198,3.61111011e-05 25.8333333,4.10535689e-14 L2.95238095,0 Z M2.95238095,1.44444404 L25.0952381,1.44444404 L25.0952381,4.33333213 L2.95238095,4.33333213 C2.12180238,4.33333213 1.47619048,3.70160453 1.47619048,2.88888809 C1.47619048,2.07617165 2.12180238,1.44444404 2.95238095,1.44444404 Z M1.47619048,5.38279295 C1.91126071,5.63073177 2.4156381,5.77777617 2.95238095,5.77777617 C11.2648464,5.77055395 21.2721262,5.77777617 28.4166667,5.77777617 C29.0427929,5.77777617 29.5238095,6.24844826 29.5238095,6.86110921 L29.5238095,10.4722193 L18.8214286,10.4722193 C17.8119357,10.4722193 16.9761905,11.2899913 16.9761905,12.2777816 L16.9761905,18.0555578 C16.9761905,19.0433408 17.8119357,19.8611128 18.8214286,19.8611128 L29.5238095,19.8611128 L29.5238095,23.4722229 C29.5238095,24.0848839 29.0427929,24.555556 28.4166667,24.555556 L2.58333333,24.555556 C1.95720714,24.555556 1.47619048,24.0848839 1.47619048,23.4722229 L1.47619048,5.38279295 Z M18.8214286,11.9166634 L29.5238095,11.9166634 L29.5238095,18.4166688 L18.8214286,18.4166688 C18.6042071,18.4166688 18.452381,18.2681077 18.452381,18.0555578 L18.452381,12.2777816 C18.452381,12.0652244 18.6042071,11.9166634 18.8214286,11.9166634 Z M22.5119048,13.349848 C21.5015631,13.349848 20.6666667,14.1667533 20.6666667,15.155403 C20.6666667,16.1440166 21.5015631,16.9609581 22.5119048,16.9609581 C23.5222464,16.9609581 24.3571429,16.1440166 24.3571429,15.155403 C24.3571429,14.1667533 23.5222464,13.349848 22.5119048,13.349848 Z M22.5119048,14.794292 C22.7244762,14.794292 22.8809524,14.9474031 22.8809524,15.155403 C22.8809524,15.3633668 22.7244762,15.516514 22.5119048,15.516514 C22.2993333,15.516514 22.1428571,15.3633668 22.1428571,15.155403 C22.1428571,14.9474031 22.2993333,14.794292 22.5119048,14.794292 Z" id="Shape"></path>
        </g>
      </g>
    </g>
  </g>
</svg>
